<mxfile host="app.diagrams.net" modified="2023-02-26T11:42:26.951Z" agent="5.0 (Macintosh; Intel Mac OS X 10_15_7) AppleWebKit/537.36 (KHTML, like Gecko) Chrome/110.0.0.0 Safari/537.36" etag="XpgKM1Mkq3VxUx947VxB" version="20.8.23" type="github">
  <diagram id="hbAyZUiHnJ-XcPSH0FP2" name="第 1 页">
    <mxGraphModel dx="1306" dy="702" grid="1" gridSize="10" guides="1" tooltips="1" connect="1" arrows="1" fold="1" page="1" pageScale="1" pageWidth="827" pageHeight="1169" math="0" shadow="0">
      <root>
        <mxCell id="0" />
        <mxCell id="1" parent="0" />
        <mxCell id="lUxajFjx2cU6RE3cXAwv-1" value="窃听&lt;br&gt;（秘密泄露）" style="rounded=0;whiteSpace=wrap;html=1;strokeWidth=1.5;fillColor=none;strokeColor=#b85450;" parent="1" vertex="1">
          <mxGeometry x="80" y="140" width="120" height="60" as="geometry" />
        </mxCell>
        <mxCell id="lUxajFjx2cU6RE3cXAwv-2" value="篡改&lt;br&gt;（信息被修改）" style="rounded=0;whiteSpace=wrap;html=1;strokeWidth=1.5;fillColor=none;strokeColor=#b85450;" parent="1" vertex="1">
          <mxGeometry x="80" y="260" width="120" height="60" as="geometry" />
        </mxCell>
        <mxCell id="lUxajFjx2cU6RE3cXAwv-3" value="伪装&lt;br&gt;（伪装成真正的发送者）" style="rounded=0;whiteSpace=wrap;html=1;strokeWidth=1.5;fillColor=none;strokeColor=#b85450;" parent="1" vertex="1">
          <mxGeometry x="80" y="380" width="120" height="60" as="geometry" />
        </mxCell>
        <mxCell id="lUxajFjx2cU6RE3cXAwv-4" value="否认&lt;br&gt;（事后称自己没有做）" style="rounded=0;whiteSpace=wrap;html=1;strokeWidth=1.5;fillColor=none;strokeColor=#b85450;" parent="1" vertex="1">
          <mxGeometry x="80" y="490" width="120" height="60" as="geometry" />
        </mxCell>
        <mxCell id="lUxajFjx2cU6RE3cXAwv-5" value="机密性" style="rounded=0;whiteSpace=wrap;html=1;strokeWidth=1.5;fillColor=none;strokeColor=#9673a6;" parent="1" vertex="1">
          <mxGeometry x="320" y="140" width="120" height="60" as="geometry" />
        </mxCell>
        <mxCell id="lUxajFjx2cU6RE3cXAwv-6" value="完整性" style="rounded=0;whiteSpace=wrap;html=1;strokeWidth=1.5;fillColor=none;strokeColor=#9673a6;" parent="1" vertex="1">
          <mxGeometry x="320" y="260" width="120" height="60" as="geometry" />
        </mxCell>
        <mxCell id="lUxajFjx2cU6RE3cXAwv-7" value="认证" style="rounded=0;whiteSpace=wrap;html=1;strokeWidth=1.5;fillColor=none;strokeColor=#9673a6;" parent="1" vertex="1">
          <mxGeometry x="320" y="380" width="120" height="60" as="geometry" />
        </mxCell>
        <mxCell id="lUxajFjx2cU6RE3cXAwv-8" value="不可否认性" style="rounded=0;whiteSpace=wrap;html=1;strokeWidth=1.5;fillColor=none;strokeColor=#9673a6;" parent="1" vertex="1">
          <mxGeometry x="320" y="490" width="120" height="60" as="geometry" />
        </mxCell>
        <mxCell id="lUxajFjx2cU6RE3cXAwv-9" value="对称密码" style="rounded=0;whiteSpace=wrap;html=1;strokeWidth=1.5;fillColor=none;strokeColor=#d79b00;" parent="1" vertex="1">
          <mxGeometry x="570" y="100" width="120" height="60" as="geometry" />
        </mxCell>
        <mxCell id="lUxajFjx2cU6RE3cXAwv-10" value="公钥密码" style="rounded=0;whiteSpace=wrap;html=1;strokeWidth=1.5;fillColor=none;strokeColor=#d79b00;" parent="1" vertex="1">
          <mxGeometry x="570" y="170" width="120" height="60" as="geometry" />
        </mxCell>
        <mxCell id="lUxajFjx2cU6RE3cXAwv-11" value="单向散列函数" style="rounded=0;whiteSpace=wrap;html=1;strokeWidth=1.5;fillColor=none;strokeColor=#d79b00;" parent="1" vertex="1">
          <mxGeometry x="570" y="260" width="120" height="60" as="geometry" />
        </mxCell>
        <mxCell id="lUxajFjx2cU6RE3cXAwv-12" value="消息认证码" style="rounded=0;whiteSpace=wrap;html=1;strokeWidth=1.5;fillColor=none;strokeColor=#d79b00;" parent="1" vertex="1">
          <mxGeometry x="570" y="380" width="120" height="60" as="geometry" />
        </mxCell>
        <mxCell id="lUxajFjx2cU6RE3cXAwv-13" value="数字签名" style="rounded=0;whiteSpace=wrap;html=1;strokeWidth=1.5;fillColor=none;strokeColor=#d79b00;" parent="1" vertex="1">
          <mxGeometry x="570" y="490" width="120" height="60" as="geometry" />
        </mxCell>
        <mxCell id="lUxajFjx2cU6RE3cXAwv-14" value="" style="endArrow=classic;html=1;rounded=0;exitX=1;exitY=0.5;exitDx=0;exitDy=0;entryX=0;entryY=0.5;entryDx=0;entryDy=0;strokeWidth=1.5;" parent="1" source="lUxajFjx2cU6RE3cXAwv-1" target="lUxajFjx2cU6RE3cXAwv-5" edge="1">
          <mxGeometry width="50" height="50" relative="1" as="geometry">
            <mxPoint x="380" y="390" as="sourcePoint" />
            <mxPoint x="430" y="340" as="targetPoint" />
          </mxGeometry>
        </mxCell>
        <mxCell id="lUxajFjx2cU6RE3cXAwv-15" value="" style="endArrow=classic;html=1;rounded=0;exitX=1;exitY=0.5;exitDx=0;exitDy=0;entryX=0;entryY=0.5;entryDx=0;entryDy=0;strokeWidth=1.5;" parent="1" edge="1">
          <mxGeometry width="50" height="50" relative="1" as="geometry">
            <mxPoint x="200" y="289.5" as="sourcePoint" />
            <mxPoint x="320" y="289.5" as="targetPoint" />
          </mxGeometry>
        </mxCell>
        <mxCell id="lUxajFjx2cU6RE3cXAwv-16" value="" style="endArrow=classic;html=1;rounded=0;exitX=1;exitY=0.5;exitDx=0;exitDy=0;entryX=0;entryY=0.5;entryDx=0;entryDy=0;strokeWidth=1.5;" parent="1" edge="1">
          <mxGeometry width="50" height="50" relative="1" as="geometry">
            <mxPoint x="200" y="409.5" as="sourcePoint" />
            <mxPoint x="320" y="409.5" as="targetPoint" />
          </mxGeometry>
        </mxCell>
        <mxCell id="lUxajFjx2cU6RE3cXAwv-17" value="" style="endArrow=classic;html=1;rounded=0;exitX=1;exitY=0.5;exitDx=0;exitDy=0;entryX=0;entryY=0.5;entryDx=0;entryDy=0;strokeWidth=1.5;" parent="1" edge="1">
          <mxGeometry width="50" height="50" relative="1" as="geometry">
            <mxPoint x="200" y="519.5" as="sourcePoint" />
            <mxPoint x="320" y="519.5" as="targetPoint" />
          </mxGeometry>
        </mxCell>
        <mxCell id="lUxajFjx2cU6RE3cXAwv-18" value="" style="endArrow=classic;html=1;rounded=0;exitX=1;exitY=0.5;exitDx=0;exitDy=0;entryX=0;entryY=0.5;entryDx=0;entryDy=0;strokeWidth=1.5;" parent="1" target="lUxajFjx2cU6RE3cXAwv-9" edge="1">
          <mxGeometry width="50" height="50" relative="1" as="geometry">
            <mxPoint x="440" y="150" as="sourcePoint" />
            <mxPoint x="560" y="150" as="targetPoint" />
          </mxGeometry>
        </mxCell>
        <mxCell id="lUxajFjx2cU6RE3cXAwv-19" value="" style="endArrow=classic;html=1;rounded=0;exitX=1;exitY=0.5;exitDx=0;exitDy=0;entryX=0;entryY=0.5;entryDx=0;entryDy=0;strokeWidth=1.5;" parent="1" target="lUxajFjx2cU6RE3cXAwv-10" edge="1">
          <mxGeometry width="50" height="50" relative="1" as="geometry">
            <mxPoint x="440" y="180" as="sourcePoint" />
            <mxPoint x="560" y="180" as="targetPoint" />
          </mxGeometry>
        </mxCell>
        <mxCell id="lUxajFjx2cU6RE3cXAwv-20" value="&lt;span style=&quot;color: rgba(0, 0, 0, 0); font-family: monospace; font-size: 0px; text-align: start; background-color: rgb(248, 249, 250);&quot;&gt;%3CmxGraphModel%3E%3Croot%3E%3CmxCell%20id%3D%220%22%2F%3E%3CmxCell%20id%3D%221%22%20parent%3D%220%22%2F%3E%3CmxCell%20id%3D%222%22%20value%3D%22%22%20style%3D%22endArrow%3Dclassic%3Bhtml%3D1%3Brounded%3D0%3BexitX%3D1%3BexitY%3D0.5%3BexitDx%3D0%3BexitDy%3D0%3BentryX%3D0%3BentryY%3D0.5%3BentryDx%3D0%3BentryDy%3D0%3B%22%20edge%3D%221%22%20parent%3D%221%22%3E%3CmxGeometry%20width%3D%2250%22%20height%3D%2250%22%20relative%3D%221%22%20as%3D%22geometry%22%3E%3CmxPoint%20x%3D%22440%22%20y%3D%22180%22%20as%3D%22sourcePoint%22%2F%3E%3CmxPoint%20x%3D%22570%22%20y%3D%22200%22%20as%3D%22targetPoint%22%2F%3E%3C%2FmxGeometry%3E%3C%2FmxCell%3E%3C%2Froot%3E%3C%2FmxGraphModel%3E&lt;/span&gt;" style="endArrow=classic;html=1;rounded=0;exitX=1;exitY=0.5;exitDx=0;exitDy=0;entryX=0;entryY=0.5;entryDx=0;entryDy=0;strokeWidth=1.5;fillColor=#008a00;strokeColor=#005700;" parent="1" target="lUxajFjx2cU6RE3cXAwv-11" edge="1">
          <mxGeometry width="50" height="50" relative="1" as="geometry">
            <mxPoint x="440" y="290" as="sourcePoint" />
            <mxPoint x="570" y="310" as="targetPoint" />
          </mxGeometry>
        </mxCell>
        <mxCell id="lUxajFjx2cU6RE3cXAwv-21" value="" style="endArrow=classic;html=1;rounded=0;exitX=1;exitY=0.5;exitDx=0;exitDy=0;entryX=0;entryY=0.5;entryDx=0;entryDy=0;strokeWidth=1.5;fillColor=#008a00;strokeColor=#005700;" parent="1" target="lUxajFjx2cU6RE3cXAwv-12" edge="1">
          <mxGeometry width="50" height="50" relative="1" as="geometry">
            <mxPoint x="440" y="300" as="sourcePoint" />
            <mxPoint x="570" y="320" as="targetPoint" />
          </mxGeometry>
        </mxCell>
        <mxCell id="lUxajFjx2cU6RE3cXAwv-22" value="" style="endArrow=classic;html=1;rounded=0;exitX=1;exitY=0.5;exitDx=0;exitDy=0;entryX=0;entryY=0.5;entryDx=0;entryDy=0;strokeWidth=1.5;fillColor=#008a00;strokeColor=#005700;" parent="1" target="lUxajFjx2cU6RE3cXAwv-13" edge="1">
          <mxGeometry width="50" height="50" relative="1" as="geometry">
            <mxPoint x="440" y="320" as="sourcePoint" />
            <mxPoint x="570" y="340" as="targetPoint" />
          </mxGeometry>
        </mxCell>
        <mxCell id="lUxajFjx2cU6RE3cXAwv-23" value="&lt;span style=&quot;color: rgba(0, 0, 0, 0); font-family: monospace; font-size: 0px; text-align: start; background-color: rgb(248, 249, 250);&quot;&gt;%3CmxGraphModel%3E%3Croot%3E%3CmxCell%20id%3D%220%22%2F%3E%3CmxCell%20id%3D%221%22%20parent%3D%220%22%2F%3E%3CmxCell%20id%3D%222%22%20value%3D%22%22%20style%3D%22endArrow%3Dclassic%3Bhtml%3D1%3Brounded%3D0%3BexitX%3D1%3BexitY%3D0.5%3BexitDx%3D0%3BexitDy%3D0%3BentryX%3D0%3BentryY%3D0.5%3BentryDx%3D0%3BentryDy%3D0%3B%22%20edge%3D%221%22%20parent%3D%221%22%3E%3CmxGeometry%20width%3D%2250%22%20height%3D%2250%22%20relative%3D%221%22%20as%3D%22geometry%22%3E%3CmxPoint%20x%3D%22440%22%20y%3D%22180%22%20as%3D%22sourcePoint%22%2F%3E%3CmxPoint%20x%3D%22570%22%20y%3D%22200%22%20as%3D%22targetPoint%22%2F%3E%3C%2FmxGeometry%3E%3C%2FmxCell%3E%3C%2Froot%3E%3C%2FmxGraphModel%3E&lt;/span&gt;" style="endArrow=classic;html=1;rounded=0;exitX=1;exitY=0.5;exitDx=0;exitDy=0;entryX=0;entryY=0.5;entryDx=0;entryDy=0;strokeWidth=1.5;fillColor=#fa6800;strokeColor=#C73500;" parent="1" edge="1">
          <mxGeometry width="50" height="50" relative="1" as="geometry">
            <mxPoint x="440" y="409.5" as="sourcePoint" />
            <mxPoint x="570" y="409.5" as="targetPoint" />
          </mxGeometry>
        </mxCell>
        <mxCell id="lUxajFjx2cU6RE3cXAwv-24" value="&lt;span style=&quot;color: rgba(0, 0, 0, 0); font-family: monospace; font-size: 0px; text-align: start; background-color: rgb(248, 249, 250);&quot;&gt;%3CmxGraphModel%3E%3Croot%3E%3CmxCell%20id%3D%220%22%2F%3E%3CmxCell%20id%3D%221%22%20parent%3D%220%22%2F%3E%3CmxCell%20id%3D%222%22%20value%3D%22%22%20style%3D%22endArrow%3Dclassic%3Bhtml%3D1%3Brounded%3D0%3BexitX%3D1%3BexitY%3D0.5%3BexitDx%3D0%3BexitDy%3D0%3BentryX%3D0%3BentryY%3D0.5%3BentryDx%3D0%3BentryDy%3D0%3B%22%20edge%3D%221%22%20parent%3D%221%22%3E%3CmxGeometry%20width%3D%2250%22%20height%3D%2250%22%20relative%3D%221%22%20as%3D%22geometry%22%3E%3CmxPoint%20x%3D%22440%22%20y%3D%22180%22%20as%3D%22sourcePoint%22%2F%3E%3CmxPoint%20x%3D%22570%22%20y%3D%22200%22%20as%3D%22targetPoint%22%2F%3E%3C%2FmxGeometry%3E%3C%2FmxCell%3E%3C%2Froot%3E%3C%2FmxGraphModel%3E&lt;/span&gt;" style="endArrow=classic;html=1;rounded=0;exitX=1;exitY=0.5;exitDx=0;exitDy=0;entryX=0;entryY=0.75;entryDx=0;entryDy=0;strokeWidth=1.5;fillColor=#fa6800;strokeColor=#C73500;" parent="1" target="lUxajFjx2cU6RE3cXAwv-13" edge="1">
          <mxGeometry width="50" height="50" relative="1" as="geometry">
            <mxPoint x="440" y="430" as="sourcePoint" />
            <mxPoint x="570" y="430" as="targetPoint" />
          </mxGeometry>
        </mxCell>
        <mxCell id="lUxajFjx2cU6RE3cXAwv-25" value="&lt;span style=&quot;color: rgba(0, 0, 0, 0); font-family: monospace; font-size: 0px; text-align: start; background-color: rgb(248, 249, 250);&quot;&gt;%3CmxGraphModel%3E%3Croot%3E%3CmxCell%20id%3D%220%22%2F%3E%3CmxCell%20id%3D%221%22%20parent%3D%220%22%2F%3E%3CmxCell%20id%3D%222%22%20value%3D%22%22%20style%3D%22endArrow%3Dclassic%3Bhtml%3D1%3Brounded%3D0%3BexitX%3D1%3BexitY%3D0.5%3BexitDx%3D0%3BexitDy%3D0%3BentryX%3D0%3BentryY%3D0.5%3BentryDx%3D0%3BentryDy%3D0%3B%22%20edge%3D%221%22%20parent%3D%221%22%3E%3CmxGeometry%20width%3D%2250%22%20height%3D%2250%22%20relative%3D%221%22%20as%3D%22geometry%22%3E%3CmxPoint%20x%3D%22440%22%20y%3D%22180%22%20as%3D%22sourcePoint%22%2F%3E%3CmxPoint%20x%3D%22570%22%20y%3D%22200%22%20as%3D%22targetPoint%22%2F%3E%3C%2FmxGeometry%3E%3C%2FmxCell%3E%3C%2Froot%3E%3C%2FmxGraphModel%3E&lt;/span&gt;" style="endArrow=classic;html=1;rounded=0;exitX=1;exitY=0.5;exitDx=0;exitDy=0;entryX=0;entryY=0.5;entryDx=0;entryDy=0;strokeWidth=1.5;fillColor=#0050ef;strokeColor=#001DBC;" parent="1" edge="1">
          <mxGeometry width="50" height="50" relative="1" as="geometry">
            <mxPoint x="440" y="519.5" as="sourcePoint" />
            <mxPoint x="570" y="519.5" as="targetPoint" />
          </mxGeometry>
        </mxCell>
        <mxCell id="lUxajFjx2cU6RE3cXAwv-26" value="信息安全面临的威胁" style="rounded=0;whiteSpace=wrap;html=1;fillColor=#cce5ff;strokeColor=#36393d;dashed=1;strokeWidth=1.5;" parent="1" vertex="1">
          <mxGeometry x="80" y="20" width="120" height="60" as="geometry" />
        </mxCell>
        <mxCell id="lUxajFjx2cU6RE3cXAwv-27" value="受威胁的特性" style="rounded=0;whiteSpace=wrap;html=1;fillColor=#cce5ff;strokeColor=#36393d;dashed=1;strokeWidth=1.5;" parent="1" vertex="1">
          <mxGeometry x="320" y="20" width="120" height="60" as="geometry" />
        </mxCell>
        <mxCell id="lUxajFjx2cU6RE3cXAwv-28" value="用来对应的密码技术" style="rounded=0;whiteSpace=wrap;html=1;fillColor=#cce5ff;strokeColor=#36393d;dashed=1;strokeWidth=1.5;" parent="1" vertex="1">
          <mxGeometry x="570" y="20" width="120" height="60" as="geometry" />
        </mxCell>
      </root>
    </mxGraphModel>
  </diagram>
</mxfile>
